# xmcd
#
# Track frame offsets:
#	150
#	21103
#	39480
#	53960
#	70026
#	85684
#	102168
#	118487
#	133405
#
# Disc length: 2251 seconds
#
# Revision: 0
# Processed by: cddbd v1.5.2PL0 Copyright (c) Steve Scherf et al.
# Submitted via: EasyCDDAExtractor 16.0.8.1
#
DISCID=7b08c909
DTITLE=Hijos De La Calle - La Misma Esencia Otro Camino
DYEAR=2001
DGENRE=Merengue
TTITLE0=Caballo Viejo
TTITLE1=Rosarito
TTITLE2=La Playa
TTITLE3=Te Pongo A Bailar
TTITLE4=Llego La Hora
TTITLE5=Dienda Jo
TTITLE6=Huracan
TTITLE7=El Niño Antonio
TTITLE8=Nuestro Turno (2da Entrega)
EXTD=
EXTT0=
EXTT1=
EXTT2=
EXTT3=
EXTT4=
EXTT5=
EXTT6=
EXTT7=
EXTT8=
PLAYORDER=
